HIERARCHY
ROOT RootJoint
{
    OFFSET   0.000000   0.000000   0.000000
    CHANNELS 6 Xposition Yposition Zposition Xrotation Yrotation Zrotation
    JOINT pelvis_lowerback
    {
        OFFSET   0.000000   0.093605   0.000000
        CHANNELS 3 Xrotation Yrotation Zrotation
        JOINT lowerback_torso
        {
            OFFSET   0.000000   0.100000   0.000000
            CHANNELS 3 Xrotation Yrotation Zrotation
            JOINT torso_head
            {
                OFFSET   0.000000   0.282350   0.000000
                CHANNELS 3 Xrotation Yrotation Zrotation
                End Site
                {
                    OFFSET   0.000000   0.192650   0.000000
                }
            }
            JOINT rTorso_Clavicle
            {
                OFFSET  -0.001000   0.157500   0.000000
                CHANNELS 3 Xrotation Yrotation Zrotation
                JOINT rShoulder
                {
                    OFFSET  -0.117647   0.000000   0.000000
                    CHANNELS 3 Xrotation Yrotation Zrotation
                    JOINT rElbow
                    {
                        OFFSET  -0.245000   0.000000   0.000000
                        CHANNELS 3 Xrotation Yrotation Zrotation
                        JOINT rWrist
                        {
                            OFFSET  -0.240000   0.000000   0.000000
                            CHANNELS 3 Xrotation Yrotation Zrotation
                            End Site
                            {
                                OFFSET  -0.116353  -0.002500   0.000000
                            }
                        }
                    }
                }
            }
            JOINT lTorso_Clavicle
            {
                OFFSET   0.001000   0.157500   0.000000
                CHANNELS 3 Xrotation Yrotation Zrotation
                JOINT lShoulder
                {
                    OFFSET   0.117647   0.000000   0.000000
                    CHANNELS 3 Xrotation Yrotation Zrotation
                    JOINT lElbow
                    {
                        OFFSET   0.245000   0.000000   0.000000
                        CHANNELS 3 Xrotation Yrotation Zrotation
                        JOINT lWrist
                        {
                            OFFSET   0.240000   0.000000   0.000000
                            CHANNELS 3 Xrotation Yrotation Zrotation
                            End Site
                            {
                                OFFSET   0.116353  -0.002500   0.000000
                            }
                        }
                    }
                }
            }
        }
    }
    JOINT rHip
    {
        OFFSET  -0.100000  -0.051395   0.000000
        CHANNELS 3 Xrotation Yrotation Zrotation
        JOINT rKnee
        {
            OFFSET   0.000000  -0.410000   0.000000
            CHANNELS 3 Xrotation Yrotation Zrotation
            JOINT rAnkle
            {
                OFFSET   0.000000  -0.390000   0.000000
                CHANNELS 3 Xrotation Yrotation Zrotation
                JOINT rToeJoint
                {
                    OFFSET   0.000000  -0.050000   0.130000
                    CHANNELS 3 Xrotation Yrotation Zrotation
                    End Site
                    {
                        OFFSET  -0.010000   0.002000   0.060000
                    }
                }
            }
        }
    }
    JOINT lHip
    {
        OFFSET   0.100000  -0.051395   0.000000
        CHANNELS 3 Xrotation Yrotation Zrotation
        JOINT lKnee
        {
            OFFSET   0.000000  -0.410000   0.000000
            CHANNELS 3 Xrotation Yrotation Zrotation
            JOINT lAnkle
            {
                OFFSET   0.000000  -0.390000   0.000000
                CHANNELS 3 Xrotation Yrotation Zrotation
                JOINT lToeJoint
                {
                    OFFSET   0.000000  -0.050000   0.130000
                    CHANNELS 3 Xrotation Yrotation Zrotation
                    End Site
                    {
                        OFFSET   0.010000   0.002000   0.060000
                    }
                }
            }
        }
    }
}
MOTION
Frames: 5
Frame Time:   0.008333
 -2.493529   0.860667   4.336362  10.902124 -16.595959   0.451479  12.421300   6.485476   0.084159   3.939113   2.434364   4.339841 -13.892464  -1.701083   1.268827   1.179714   5.505184   8.905852  -2.945645  10.007482  43.344286 179.924860  84.009466 -179.927734   2.643465   3.650067 -12.187514   8.977907   2.669492  -8.151719  23.376878   0.509416 -43.375147   0.178982 -89.101735   0.183438   2.191889  -5.247935   7.519840   4.540102   5.446381   0.585045  16.284046  -0.000577   0.001192 -22.524579   3.229706  -0.477634 -13.756795   0.014229   0.002718 -39.569098  -4.065344   4.899135  61.463248  -0.001056  -0.004398 -23.414908   6.724039   5.700672  -4.802574   0.001034   0.000958
 -2.495024   0.862687   4.347198  11.125445 -16.425694   0.893270  12.367605   6.831572  -0.147655   3.890629   2.644042   4.100743 -13.854111  -1.934792   1.224600   1.003458   5.538460   8.728144  -3.411464  10.042947  43.602338 179.925995  83.337049 -179.928789   2.472887   3.671858 -12.298919   9.234233   3.026513  -7.977789  23.640477   0.755905 -43.482481   0.150604 -89.038349   0.154525   2.057962  -5.086648   7.435347   5.197522   5.289615   0.038006  15.863437  -0.000877   0.000921 -20.528904   3.327858  -0.305358 -17.287838   0.018779  -0.000061 -40.250838  -3.894705   4.490090  59.365007  -0.001987  -0.004703 -23.462180   6.630556   5.628954  -4.758641   0.000982   0.000867
 -2.496464   0.865210   4.358395  11.395934 -16.224081   1.354579  12.281882   7.156440  -0.401092   3.847436   2.836442   3.845040 -13.797440  -2.154514   1.178086   0.862214   5.537687   8.532216  -3.830034  10.067863  43.850864 179.926756  82.683171 -179.929646   2.319726   3.762366 -12.386998   9.485008   3.391118  -7.776736  23.895838   0.996132 -43.586768   0.125105 -89.003474   0.128437   1.937171  -5.024580   7.371844   5.769343   5.136770  -0.515578  15.471477  -0.001162   0.000563 -18.177319   3.416564  -0.094251 -21.187034   0.025612  -0.001894 -40.849429  -3.700307   4.024390  57.151841  -0.003571  -0.004609 -23.510093   6.538408   5.559590  -4.683345   0.001071   0.000866
 -2.497873   0.867814   4.369853  11.681287 -16.054311   1.840541  12.193430   7.478397  -0.696578   3.808631   3.026809   3.568768 -13.736890  -2.358598   1.128631   0.731654   5.527655   8.321669  -4.220246  10.089280  44.077985 179.928613  82.060807 -179.931812   2.182316   3.893815 -12.466893   9.730705   3.756194  -7.547893  24.144499   1.238532 -43.673207   0.103547 -88.978642   0.106341   1.825653  -5.011087   7.341054   6.283936   4.941663  -1.075334  15.132929  -0.001246   0.000469 -15.669159   3.447858   0.157791 -25.234612   0.031829   0.003068 -41.402159  -3.486476   3.536232  55.056841  -0.004590  -0.003769 -23.556855   6.451102   5.494173  -4.617040   0.001101   0.000811
 -2.499188   0.870202   4.381501  11.973336 -15.913660   2.358742  12.105727   7.788565  -1.023683   3.771983   3.210830   3.271807 -13.675294  -2.548549   1.075306   0.603531   5.513400   8.095778  -4.589695  10.108374  44.280234 179.931812  81.471044 -179.935437   2.058235   4.052134 -12.552071   9.968910   4.115166  -7.301235  24.384868   1.479849 -43.743804   0.085597 -88.959389   0.087925   1.720647  -5.018168   7.336275   6.766943   4.758587  -1.666733  14.827772  -0.001286   0.000407 -13.117144   3.502542   0.258443 -29.920266   0.032531   0.006199 -41.931817  -3.266503   3.024483  53.120167  -0.004923  -0.002379 -23.601465   6.368990   5.433019  -4.564280   0.001063   0.000711
